<?xml version="1.0" encoding="UTF-8" standalone="no"?>
<!-- Created with Inkscape (http://www.inkscape.org/) -->

<svg
   width="64"
   height="64"
   viewBox="0 0 24 24"
   version="1.1"
   id="svg5"
   inkscape:export-filename="Rastergrafik2.svg"
   inkscape:export-xdpi="36"
   inkscape:export-ydpi="36"
   inkscape:version="1.2.2 (732a01da63, 2022-12-09)"
   sodipodi:docname="ServerIcon.ink.svg"
   xmlns:inkscape="http://www.inkscape.org/namespaces/inkscape"
   xmlns:sodipodi="http://sodipodi.sourceforge.net/DTD/sodipodi-0.dtd"
   xmlns="http://www.w3.org/2000/svg"
   xmlns:svg="http://www.w3.org/2000/svg">
  <sodipodi:namedview
     id="namedview7"
     pagecolor="#505050"
     bordercolor="#eeeeee"
     borderopacity="1"
     inkscape:showpageshadow="0"
     inkscape:pageopacity="0"
     inkscape:pagecheckerboard="0"
     inkscape:deskcolor="#505050"
     inkscape:document-units="px"
     showgrid="true"
     inkscape:zoom="5.9081369"
     inkscape:cx="28.012215"
     inkscape:cy="29.789425"
     inkscape:window-width="1920"
     inkscape:window-height="1009"
     inkscape:window-x="-8"
     inkscape:window-y="44"
     inkscape:window-maximized="1"
     inkscape:current-layer="layer1">
    <inkscape:grid
       type="xygrid"
       id="grid134"
       empspacing="8" />
  </sodipodi:namedview>
  <defs
     id="defs2" />
  <g
     inkscape:label="Ebene 1"
     inkscape:groupmode="layer"
     id="layer1">
    <path
       id="path1058"
       style="fill:#baa05a;stroke-width:8.86851;stroke-opacity:0.996078"
       d="M 2.9117143,1.1060413 A 1.7062549,1.5822381 0 0 0 1.2055635,2.6881828 V 9.5711116 A 1.7062549,1.5822381 0 0 0 2.9117143,11.153252 H 21.168849 A 1.7062549,1.5822381 0 0 0 22.875,9.5711116 V 2.6881828 A 1.7062549,1.5822381 0 0 0 21.168849,1.1060413 Z m 2.7589383,3.7677044 h 1.9045403 a 0.85312746,0.79111906 0 0 1 0.067012,0.00246 0.85312746,0.79111906 0 0 1 0.067012,0.00736 0.85312746,0.79111906 0 0 1 0.065249,0.012262 0.85312746,0.79111906 0 0 1 0.064367,0.016352 0.85312746,0.79111906 0 0 1 0.063484,0.022077 0.85312746,0.79111906 0 0 1 0.06084,0.025348 0.85312746,0.79111906 0 0 1 0.058195,0.03107 0.85312746,0.79111906 0 0 1 0.055549,0.034341 0.85312746,0.79111906 0 0 1 0.052904,0.038429 0.85312746,0.79111906 0 0 1 0.049378,0.0417 0.85312746,0.79111906 0 0 1 0.044969,0.045789 0.85312746,0.79111906 0 0 1 0.041441,0.049058 0.85312746,0.79111906 0 0 1 0.037032,0.051511 0.85312746,0.79111906 0 0 1 0.033506,0.053966 0.85312746,0.79111906 0 0 1 0.027335,0.056418 0.85312746,0.79111906 0 0 1 0.023807,0.058871 0.85312746,0.79111906 0 0 1 0.017634,0.059688 0.85312746,0.79111906 0 0 1 0.013223,0.060507 0.85312746,0.79111906 0 0 1 0.00793,0.062141 0.85312746,0.79111906 0 0 1 0.00264,0.062141 V 6.5940715 A 0.85312746,0.79111906 0 0 1 8.4075476,6.7706803 0.85312746,0.79111906 0 0 1 8.344063,6.9374795 0.85312746,0.79111906 0 0 1 8.2426638,7.0879262 0.85312746,0.79111906 0 0 1 8.1077589,7.2130257 0.85312746,0.79111906 0 0 1 7.9455202,7.3070548 0.85312746,0.79111906 0 0 1 7.765647,7.3659252 0.85312746,0.79111906 0 0 1 7.5751929,7.3855487 H 5.6706526 A 0.85312746,0.79111906 0 0 1 5.4801986,7.3659252 0.85312746,0.79111906 0 0 1 5.3003253,7.3070548 0.85312746,0.79111906 0 0 1 5.1380867,7.2130257 0.85312746,0.79111906 0 0 1 5.0031817,7.0879262 0.85312746,0.79111906 0 0 1 4.9017825,6.9374795 0.85312746,0.79111906 0 0 1 4.8382979,6.7706803 0.85312746,0.79111906 0 0 1 4.8171363,6.594069 V 5.6652253 A 0.85312746,0.79111906 0 0 1 4.8382973,5.4886142 0.85312746,0.79111906 0 0 1 4.9017823,5.3218148 0.85312746,0.79111906 0 0 1 5.0031818,5.1713676 0.85312746,0.79111906 0 0 1 5.1380868,5.0462681 0.85312746,0.79111906 0 0 1 5.300326,4.9522391 0.85312746,0.79111906 0 0 1 5.4801992,4.8933691 0.85312746,0.79111906 0 0 1 5.6706526,4.8737457 Z" />
    <path
       id="path1062"
       style="fill:#baa05a;stroke-width:8.86851;stroke-opacity:0.996078"
       inkscape:label="rect240"
       d="M 2.9117143,12.827789 A 1.7062549,1.5822381 0 0 0 1.2055635,14.40993 v 6.882928 A 1.7062549,1.5822381 0 0 0 2.9117143,22.875 H 21.168849 A 1.7062549,1.5822381 0 0 0 22.875,21.292858 V 14.40993 a 1.7062549,1.5822381 0 0 0 -1.706151,-1.582141 z m 2.7589383,3.767703 h 1.9045403 a 0.85312746,0.79111906 0 0 1 0.067012,0.0024 0.85312746,0.79111906 0 0 1 0.067012,0.0074 0.85312746,0.79111906 0 0 1 0.065249,0.01235 0.85312746,0.79111906 0 0 1 0.064367,0.01634 0.85312746,0.79111906 0 0 1 0.063484,0.02207 0.85312746,0.79111906 0 0 1 0.06084,0.02534 0.85312746,0.79111906 0 0 1 0.058195,0.03107 0.85312746,0.79111906 0 0 1 0.055549,0.03435 0.85312746,0.79111906 0 0 1 0.052904,0.03843 0.85312746,0.79111906 0 0 1 0.049378,0.04171 0.85312746,0.79111906 0 0 1 0.044969,0.04579 0.85312746,0.79111906 0 0 1 0.041441,0.04906 0.85312746,0.79111906 0 0 1 0.037032,0.05152 0.85312746,0.79111906 0 0 1 0.033506,0.05397 0.85312746,0.79111906 0 0 1 0.027335,0.05642 0.85312746,0.79111906 0 0 1 0.023807,0.05887 0.85312746,0.79111906 0 0 1 0.017634,0.05968 0.85312746,0.79111906 0 0 1 0.013223,0.06051 0.85312746,0.79111906 0 0 1 0.00793,0.06214 0.85312746,0.79111906 0 0 1 0.00264,0.06214 v 0.928843 a 0.85312746,0.79111906 0 0 1 -0.021161,0.176611 0.85312746,0.79111906 0 0 1 -0.063484,0.166799 0.85312746,0.79111906 0 0 1 -0.1013992,0.150456 0.85312746,0.79111906 0 0 1 -0.1349051,0.125091 0.85312746,0.79111906 0 0 1 -0.1622393,0.09403 0.85312746,0.79111906 0 0 1 -0.1798732,0.05887 0.85312746,0.79111906 0 0 1 -0.190454,0.01962 H 5.6706526 A 0.85312746,0.79111906 0 0 1 5.4801986,19.087692 0.85312746,0.79111906 0 0 1 5.3003253,19.028819 0.85312746,0.79111906 0 0 1 5.1380861,18.934791 0.85312746,0.79111906 0 0 1 5.003181,18.8097 0.85312746,0.79111906 0 0 1 4.9017818,18.659244 0.85312746,0.79111906 0 0 1 4.8382975,18.492445 0.85312746,0.79111906 0 0 1 4.8171368,18.315834 v -0.928843 a 0.85312746,0.79111906 0 0 1 0.021161,-0.176611 0.85312746,0.79111906 0 0 1 0.063484,-0.1668 0.85312746,0.79111906 0 0 1 0.1013992,-0.150454 0.85312746,0.79111906 0 0 1 0.1349051,-0.125092 0.85312746,0.79111906 0 0 1 0.1622392,-0.09403 0.85312746,0.79111906 0 0 1 0.1798733,-0.05887 0.85312746,0.79111906 0 0 1 0.190454,-0.01962 z" />
  </g>
</svg>
